<svg xmlns="http://www.w3.org/2000/svg" width="77" height="47" fill="none" aria-labelledby="vite-logo-title" viewBox="0 0 77 47"><title id="vite-logo-title">Vite</title><style>.parenthesis{fill:#000}@media (prefers-color-scheme:dark){.parenthesis{fill:#fff}}</style><path fill="#9135ff" d="M40.151 45.71c-.663.844-2.02.374-2.02-.699V34.708a2.26 2.26 0 0 0-2.262-2.262H24.493c-.92 0-1.457-1.04-.92-1.788l7.479-10.471c1.07-1.498 0-3.578-1.842-3.578H15.443c-.92 0-1.456-1.04-.92-1.788l9.696-13.576c.213-.297.556-.474.92-.474h28.894c.92 0 1.456 1.04.92 1.788l-7.48 10.472c-1.07 1.497 0 3.578 1.842 3.578h11.376c.944 0 1.474 1.087.89 1.83L40.153 45.712z"/><mask id="a" width="48" height="47" x="14" y="0" maskUnits="userSpaceOnUse" style="mask-type:alpha"><path fill="#000" d="M40.047 45.71c-.663.843-2.02.374-2.02-.699V34.708a2.26 2.26 0 0 0-2.262-2.262H24.389c-.92 0-1.457-1.04-.92-1.788l7.479-10.472c1.07-1.497 0-3.578-1.842-3.578H15.34c-.92 0-1.456-1.04-.92-1.788l9.696-13.575c.213-.297.556-.474.92-.474H53.93c.92 0 1.456 1.04.92 1.788L47.37 13.03c-1.07 1.498 0 3.578 1.842 3.578h11.376c.944 0 1.474 1.088.89 1.831L40.049 45.712z"/></mask><g mask="url(#a)"><g filter="url(#b)"><ellipse cx="5.508" cy="14.704" fill="#eee6ff" rx="5.508" ry="14.704" transform="rotate(269.814 20.96 11.29)scale(-1 1)"/></g><g filter="url(#c)"><ellipse cx="10.399" cy="29.851" fill="#eee6ff" rx="10.399" ry="29.851" transform="rotate(89.814 -16.902 -8.275)scale(1 -1)"/></g><g filter="url(#d)"><ellipse cx="5.508" cy="30.487" fill="#8900ff" rx="5.508" ry="30.487" transform="rotate(89.814 -19.197 -7.127)scale(1 -1)"/></g></g></svg>